OpenSim_Sub04_CSBaseline_GRF.mot
version=1
nRows=69
nColumns=19
inDegrees=no
endheader
time	lFx	lFy	lFz	lCOPx	lCOPy	lCOPz	rFx	rFy	rFz	rCOPx	rCOPy	rCOPz	lMx	lMy	lMz	rMx	rMy	rMz
20.20000000	-13.06297580	633.65910205	45.96480668	1.10246260	0	-0.63536784	0.05976578	0.62422163	-0.13227300	-0.00003275	0	0.00001486	0	-21.73725301	0	0	-0.00000831	-0.00000000
20.21000000	-11.92587935	625.99935250	43.99470046	1.09789907	0	-0.63502573	0.04929579	0.62541963	-0.11813402	-0.00001268	0	0.00000568	0	-21.52385090	0	0	-0.00000411	-0.00000000
20.22000000	-10.68246936	620.36842626	42.10507967	1.09324403	0	-0.63470042	0.02215857	0.56901369	-0.12106462	-0.00000161	0	0.00000067	0	-21.30610437	0	0	-0.00000110	-0.00000000
20.23000000	-9.33317049	616.99029500	40.49930526	1.08861036	0	-0.63438820	0.00012782	0.52670689	-0.11535177	0.00000199	0	-0.00000094	0	-21.11230762	0	0	0.00000024	-0.00000000
20.24000000	-7.60683256	615.92782223	39.20395957	1.08384769	0	-0.63408518	-0.00518771	0.50206994	-0.12987746	0.00000195	0	-0.00000091	0	-20.92271914	0	0	0.00000054	-0.00000000
20.25000000	-5.44720906	617.20914848	38.36779171	1.07864511	0	-0.63377474	0.01032971	0.47895885	-0.15751608	0.00000099	0	-0.00000047	0	-20.74401295	0	0	0.00000036	0.00000000
20.26000000	-3.03051520	620.53810178	37.96971094	1.07311023	0	-0.63346873	0.02412573	0.44134108	-0.14467378	0.00000041	0	-0.00000018	0	-20.57291984	0	0	-0.00000006	-0.00000000
20.27000000	-0.59422600	625.52707571	37.84909667	1.06743392	0	-0.63318215	0.02067025	0.40386385	-0.11066893	0.00000069	0	-0.00000023	0	-20.40647110	0	0	-0.00000078	0.00000000
20.28000000	1.86649852	631.82958613	37.95839333	1.06165209	0	-0.63289025	0.01201012	0.40543736	-0.10646375	0.00000183	0	-0.00000061	0	-20.27842341	0	0	-0.00000175	-0.00000000
20.29000000	4.49929662	639.15224324	38.13535385	1.05561971	0	-0.63257300	-0.01118688	0.40148488	-0.09035076	0.00000321	0	-0.00000107	0	-20.18542282	0	0	-0.00000226	0.00000000
20.30000000	7.35583592	647.37409508	38.24909125	1.04932939	0	-0.63225161	-0.06466806	0.38808510	-0.10462772	0.00000271	0	-0.00000090	0	-20.09591249	0	0	-0.00000030	0.00000000
20.31000000	10.29051506	656.30474885	38.33085670	1.04299666	0	-0.63195194	-0.11354644	0.35031116	-0.14591709	-0.00000410	0	0.00000141	0	-20.01528813	0	0	0.00000763	0.00000000
20.32000000	13.20342222	665.42207730	38.41225193	1.03668316	0	-0.63166639	-0.12092179	0.24903768	-0.10304725	-0.00002292	0	0.00000777	0	-19.98164898	0	0	0.00002444	-0.00000000
20.33000000	16.22209483	674.05229608	38.49485853	1.03038718	0	-0.63141415	-0.10734749	0.21393909	-0.09966272	-0.00005461	0	0.00001843	0	-19.98543878	0	0	0.00004581	0.00000000
20.34000000	19.46706713	681.67472533	38.65489677	1.02407612	0	-0.63123789	-0.09104059	0.30499870	-0.13369410	-0.00008013	0	0.00002691	0	-20.04539377	0	0	0.00004746	0.00000000
20.35000000	22.96034007	687.81402881	38.88894545	1.01794647	0	-0.63115323	-0.08874660	0.46021456	-0.14762027	-0.00003801	0	0.00001243	0	-20.14888106	0	0	-0.00002854	-0.00000000
20.36000000	26.58936385	692.13545828	39.17165767	1.01205049	0	-0.63111900	-0.07641519	0.56732280	-0.15611695	0.00018759	0	-0.00006403	0	-20.25323519	0	0	-0.00026725	0.00000000
20.37000000	30.29720261	694.65463981	39.49252736	1.00617065	0	-0.63112092	-0.06022130	0.60791437	-0.15566489	0.00071793	0	-0.00024299	0	-20.37566639	0	0	-0.00070927	-0.00000000
20.38000000	34.00366139	695.67967674	39.70440368	1.00012689	0	-0.63120485	-0.05229027	0.64139379	-0.12583822	0.00148473	0	-0.00050050	0	-20.50826589	0	0	-0.00115618	0.00000000
20.39000000	37.57587753	695.50868864	39.69169299	0.99394714	0	-0.63139307	-0.04468408	0.61747056	-0.12184231	0.00181928	0	-0.00060956	0	-20.62766810	0	0	-0.00084711	0.00000000
20.40000000	40.85501912	694.41347868	39.54279891	0.98774372	0	-0.63170138	-0.06251709	0.43178538	-0.13200859	-0.00006499	0	0.00003327	0	-20.74283464	0	0	0.00179290	-0.00000000
20.41000000	43.88099680	692.50403948	39.34809181	0.98153208	0	-0.63218310	-0.17955260	0.03025675	-0.10497170	-0.00709731	0	0.00241316	0	-20.83953476	0	0	0.00869635	0.00000000
20.42000000	46.99109175	689.42086396	39.07534228	0.97525254	0	-0.63286566	-0.50779192	-0.60526117	-0.08590841	-0.02146326	0	0.00725538	0	-20.87926691	0	0	0.01980251	-0.00000000
20.43000000	50.32771797	684.48990554	38.82057812	0.96895457	0	-0.63366906	-1.06972507	-1.06979600	-0.14263979	-0.03874099	0	0.01304278	0	-20.90541333	0	0	0.02759761	0.00000000
20.44000000	53.78093893	677.10456806	38.60394599	0.96287011	0	-0.63446544	-1.54822419	-0.11446809	-0.37307570	-0.03711726	0	0.01238453	0	-20.96077592	0	0	0.00932855	-0.00000000
20.45000000	57.17161098	667.20253037	38.31034577	0.95694565	0	-0.63515899	-0.88713026	4.67300489	-0.91747777	0.03336465	0	-0.01157407	0	-21.02687519	0	0	-0.07611209	-0.00000000
20.46000000	60.47425096	655.26387394	37.82117916	0.95095632	0	-0.63567231	2.73897513	16.32149063	-1.71647193	0.24280211	0	-0.08236418	0	-21.07285026	0	0	-0.26818922	0
20.47000000	63.63625532	641.97833695	36.96570230	0.94480992	0	-0.63597516	9.44700502	36.74894890	-1.86863934	0.61618356	0	-0.20805322	0	-21.05580976	0	0	-0.53174602	0.00000000
20.48000000	66.42430011	627.74369797	35.60986740	0.93869366	0	-0.63608582	14.81048697	64.07647139	-0.17909593	0.99973814	0	-0.33694290	0	-20.95323277	0	0	-0.65642777	0.00000000
20.49000000	68.38195297	612.53703890	33.72631850	0.93290127	0	-0.63599533	14.53651223	94.31662803	2.45745077	1.22260511	0	-0.41311235	0	-20.74778085	0	0	-0.80020135	0
20.50000000	69.31980023	595.90493556	31.31555847	0.92749149	0	-0.63568651	8.83344755	126.12952153	4.67548629	1.30061402	0	-0.44116124	0	-20.45795606	0	0	-1.10215775	0
20.51000000	69.60021935	576.91717405	28.27385569	0.92244080	0	-0.63516465	0.45863247	161.35106101	6.05457153	1.30509910	0	-0.44356305	0	-20.05756937	0	0	-1.36627579	0
20.52000000	69.66531774	554.87356233	24.65081235	0.91767358	0	-0.63448423	-8.43725498	201.59603313	5.88751939	1.28838113	0	-0.43771871	0	-19.57682974	0	0	-1.58604505	0
20.53000000	69.60990577	529.50983880	20.51908649	0.91313080	0	-0.63377464	-16.61584274	246.18091847	3.82227260	1.27285294	0	-0.43190149	0	-19.04936033	0	0	-1.71255096	0
20.54000000	69.07999645	500.62008595	15.89703326	0.90873834	0	-0.63311349	-23.35565048	292.55286291	-0.18601273	1.26342622	0	-0.42819758	0	-18.48217145	0	0	-1.76984362	0.00000000
20.55000000	67.68442901	467.86055401	10.85803785	0.90431162	0	-0.63246751	-28.73534600	337.58929920	-5.71591270	1.25838245	0	-0.42602704	0	-17.93006182	0	0	-1.82594073	0
20.56000000	65.15776566	431.04971351	5.51917586	0.89977662	0	-0.63172145	-33.37449735	378.63988644	-12.10421524	1.25567494	0	-0.42449301	0	-17.44932147	0	0	-1.89407518	0
20.57000000	61.44144602	390.45996102	0.04589406	0.89563001	0	-0.63081140	-38.10566059	414.94610099	-18.86934578	1.25432646	0	-0.42310074	0	-17.08082469	0	0	-2.01798140	0
20.58000000	56.57353398	346.65585034	-5.26254699	0.89242352	0	-0.62980085	-43.79400160	447.03176778	-25.43206082	1.25372257	0	-0.42175670	0	-16.90081228	0	0	-2.19869029	0
20.59000000	50.64271968	300.58078062	-9.95583306	0.89034064	0	-0.62910274	-50.29417885	474.96345979	-30.91364632	1.25336086	0	-0.42061031	0	-16.99157363	0	0	-2.46062375	0
20.60000000	43.89324917	253.67249050	-13.69757206	0.89017858	0	-0.62984264	-56.45004852	498.83619020	-35.17343936	1.25301523	0	-0.41978065	0	-17.34525458	0	0	-2.61755841	0
20.61000000	36.53675425	207.92768164	-16.12063011	0.89379503	0	-0.63361758	-61.46838501	519.71032674	-38.87872279	1.25238410	0	-0.41922400	0	-18.03795361	0	0	-2.76941040	0
20.62000000	28.69747914	165.52049330	-17.19964162	0.90234820	0	-0.64128369	-65.09323946	539.24942975	-41.85702953	1.25099985	0	-0.41882790	0	-19.12496785	0	0	-2.93166936	0
20.63000000	20.54830810	128.16248515	-17.40691086	0.91078402	0	-0.64947182	-67.29217611	558.97643881	-43.82767003	1.24867411	0	-0.41859170	0	-20.34657715	0	0	-3.02150525	0
20.64000000	12.60943258	96.59973812	-17.28877230	0.90000671	0	-0.64482670	-68.11817135	580.11879463	-44.87265241	1.24544279	0	-0.41847009	0	-21.01581448	0	0	-3.02692394	0
20.65000000	5.80469186	70.51112894	-17.26298017	0.83245942	0	-0.59966459	-67.91608569	602.87310140	-45.38861120	1.24173972	0	-0.41841300	0	-20.04120952	0	0	-2.97873173	0
20.66000000	1.09471821	49.02365437	-17.53666526	0.66264891	0	-0.47989391	-67.20880160	626.15995424	-45.93628798	1.23797916	0	-0.41840560	0	-16.25502950	0	0	-2.89288771	0
20.67000000	-0.86135280	30.95629284	-18.16849082	0.39219826	0	-0.28505201	-66.35735458	648.38471038	-46.80045959	1.23412204	0	-0.41837581	0	-9.72966293	0	0	-2.79687059	0
20.68000000	-0.02018332	15.79126397	-19.03248214	0.14602028	0	-0.10652687	-65.41421652	668.02224651	-48.05343142	1.22998072	0	-0.41827073	0	-3.66434700	0	0	-2.71080407	-0.00000000
20.69000000	2.60287406	4.61015744	-20.01139462	0.01436167	0	-0.01075958	-64.37783603	683.92022293	-49.70320859	1.22560925	0	-0.41803570	0	-0.39006281	0	0	-2.63133843	0
20.70000000	4.86855044	-1.23014062	-20.73871625	-0.02692329	0	0.01941379	-63.23400347	695.01664426	-51.57813714	1.22105355	0	-0.41765895	0	0.65170776	0	0	-2.60082232	-0.00000000
20.71000000	6.01152150	-2.98324727	-20.95092940	-0.02550615	0	0.01849839	-61.83426799	700.53853481	-53.52597459	1.21629233	0	-0.41719757	0	0.62859234	0	0	-2.63950934	-0.00000000
20.72000000	6.33251351	-2.84077729	-21.05850409	-0.01347525	0	0.00980259	-60.02564329	700.37839013	-55.32350968	1.21140550	0	-0.41674670	0	0.33520828	0	0	-2.67062424	0
20.73000000	6.25147920	-2.30488558	-21.02405382	-0.00414380	0	0.00302920	-57.60598220	695.37691932	-56.60322380	1.20624703	0	-0.41640499	0	0.10463508	0	0	-2.69575006	0.00000000
20.74000000	6.06002255	-1.97951963	-20.96392556	0.00021096	0	-0.00014153	-54.61913113	687.32641367	-57.28986501	1.20069584	0	-0.41624892	0	-0.00399378	0	0	-2.63735899	0
20.75000000	5.86253082	-1.90637001	-20.91798050	0.00126299	0	-0.00091304	-51.35296384	678.14906902	-57.51026616	1.19482878	0	-0.41631532	0	-0.03081623	0	0	-2.41757482	0
20.76000000	5.66718279	-1.96905490	-20.82676843	0.00096320	0	-0.00069921	-48.03664407	669.22025937	-57.12725128	1.18883594	0	-0.41655605	0	-0.02380582	0	0	-2.11557862	0
20.77000000	5.44601362	-2.00483285	-20.75793895	0.00044393	0	-0.00032326	-44.62413006	660.99062347	-56.17941644	1.18260989	0	-0.41696514	0	-0.01107696	0	0	-1.78626784	0.00000000
20.78000000	5.17266649	-1.89100219	-20.66016443	0.00010409	0	-0.00007637	-40.95756940	653.40336095	-54.97065866	1.17599454	0	-0.41752303	0	-0.00265754	0	0	-1.41572328	0
20.79000000	4.83950124	-1.69359081	-20.52892802	-0.00003310	0	0.00002364	-37.00748103	646.33754719	-53.61997885	1.16896950	0	-0.41814710	0	0.00077743	0	0	-1.05944073	0
20.80000000	4.46386671	-1.51078848	-20.37499677	-0.00005416	0	0.00003921	-32.68314597	639.58713278	-52.31722412	1.16158595	0	-0.41880096	0	0.00132800	0	0	-0.74991456	0
20.81000000	4.08740641	-1.41961334	-20.23113852	-0.00003496	0	0.00002540	-27.94801728	633.34262623	-51.45455482	1.15414559	0	-0.41945049	0	0.00086625	0	0	-0.44342119	-0.00000000
20.82000000	3.76383526	-1.45090789	-20.11050156	-0.00001392	0	0.00001015	-23.02702990	628.12411209	-50.99255890	1.14700887	0	-0.42001272	0	0.00034855	0	0	-0.20781779	0.00000000
20.83000000	3.50416630	-1.48162072	-19.98245712	-0.00000200	0	0.00000149	-18.45690872	624.27338073	-50.72392121	1.14032292	0	-0.42045369	0	0.00005266	0	0	-0.04528499	-0.00000000
20.84000000	3.27027866	-1.48569024	-19.85545278	0.00000206	0	-0.00000148	-14.61379211	621.78082571	-50.59336043	1.13398988	0	-0.42083943	0	-0.00004952	0	0	0.12377544	0
20.85000000	3.04156590	-1.43951659	-19.74118935	0.00000219	0	-0.00000159	-11.51900230	620.49487149	-50.32722284	1.12787549	0	-0.42123145	0	-0.00005388	0	0	0.29267702	0.00000000
20.86000000	2.80321272	-1.42539100	-19.64047368	0.00000122	0	-0.00000089	-8.84335474	620.43098616	-49.74530859	1.12169048	0	-0.42163898	0	-0.00003021	0	0	0.46783760	0
20.87000000	2.52849376	-1.47466461	-19.56910677	0.00000037	0	-0.00000028	-6.22578220	621.90965960	-49.10000782	1.11548962	0	-0.42204056	0	-0.00000942	0	0	0.70178635	0.00000000
20.88000000	2.24359399	-1.47444690	-19.52334413	-0.00000008	0	0.00000004	-3.61982197	625.23464766	-48.46752119	1.10941596	0	-0.42237965	0	0.00000193	0	0	0.97587774	-0.00000000
